# xmcd
#
# Track frame offsets:
#	150
#	13367
#	20280
#	34562
#	48922
#	60047
#	70632
#	79367
#	91177
#	103370
#	117580
#	129687
#	139655
#	153230
#
# Disc length: 2226 seconds
#
# Revision: 0
# Processed by: cddbd v1.4PL0 Copyright (c) Steve Scherf et al.
# Submitted via: dBpowerAMP V4.0
#
DISCID=b208b00e
DTITLE=Mário Zan - Bis CD2
DYEAR=1900
DGENRE=
TTITLE0=Zingara
TTITLE1=Vai que é mole
TTITLE2=festa do chopps
TTITLE3=Asa branca
TTITLE4=Só rindo
TTITLE5=Acordei cansado
TTITLE6=Rebola bola
TTITLE7=Charlestonzan
TTITLE8=Forró do luna
TTITLE9=Polca no. 1
TTITLE10=Revivendo
TTITLE11=Nossa amizade
TTITLE12=Dorinha
TTITLE13=O chorão
EXTD=
EXTT0=
EXTT1=
EXTT2=
EXTT3=
EXTT4=
EXTT5=
EXTT6=
EXTT7=
EXTT8=
EXTT9=
EXTT10=
EXTT11=
EXTT12=
EXTT13=
PLAYORDER=
